<svg
  width="4461"
  height="28"
  viewBox="0 0 4461 28"
  fill="none"
  xmlns="http://www.w3.org/2000/svg"
>
  <path
    d="M0.666667 14C0.666667 21.3638 6.6362 27.3333 14 27.3333C21.3638 27.3333 27.3333 21.3638 27.3333 14C27.3333 6.6362 21.3638 0.666667 14 0.666667C6.6362 0.666667 0.666667 6.6362 0.666667 14ZM4433.67 14C4433.67 21.3638 4439.64 27.3333 4447 27.3333C4454.36 27.3333 4460.33 21.3638 4460.33 14C4460.33 6.6362 4454.36 0.666667 4447 0.666667C4439.64 0.666667 4433.67 6.6362 4433.67 14ZM14 16.5H21.973V11.5H14V16.5ZM37.9191 16.5H53.8651V11.5H37.9191V16.5ZM69.8112 16.5H85.7572V11.5H69.8112V16.5ZM101.703 16.5H117.649V11.5H101.703V16.5ZM133.595 16.5H149.541V11.5H133.595V16.5ZM165.487 16.5H181.433V11.5H165.487V16.5ZM197.38 16.5H213.326V11.5H197.38V16.5ZM229.272 16.5H245.218V11.5H229.272V16.5ZM261.164 16.5H277.11V11.5H261.164V16.5ZM293.056 16.5H309.002V11.5H293.056V16.5ZM324.948 16.5H340.894V11.5H324.948V16.5ZM356.84 16.5H372.786V11.5H356.84V16.5ZM388.732 16.5H404.678V11.5H388.732V16.5ZM420.624 16.5H436.57V11.5H420.624V16.5ZM452.516 16.5H468.462V11.5H452.516V16.5ZM484.408 16.5H500.354V11.5H484.408V16.5ZM516.3 16.5H532.246V11.5H516.3V16.5ZM548.192 16.5H564.139V11.5H548.192V16.5ZM580.085 16.5H596.031V11.5H580.085V16.5ZM611.977 16.5H627.923V11.5H611.977V16.5ZM643.869 16.5H659.815V11.5H643.869V16.5ZM675.761 16.5H691.707V11.5H675.761V16.5ZM707.653 16.5H723.599V11.5H707.653V16.5ZM739.545 16.5H755.491V11.5H739.545V16.5ZM771.437 16.5H787.383V11.5H771.437V16.5ZM803.329 16.5H819.275V11.5H803.329V16.5ZM835.221 16.5H851.167V11.5H835.221V16.5ZM867.113 16.5H883.059V11.5H867.113V16.5ZM899.005 16.5H914.951V11.5H899.005V16.5ZM930.898 16.5H946.844V11.5H930.898V16.5ZM962.79 16.5H978.736V11.5H962.79V16.5ZM994.682 16.5H1010.63V11.5H994.682V16.5ZM1026.57 16.5H1042.52V11.5H1026.57V16.5ZM1058.47 16.5H1074.41V11.5H1058.47V16.5ZM1090.36 16.5H1106.3V11.5H1090.36V16.5ZM1122.25 16.5H1138.2V11.5H1122.25V16.5ZM1154.14 16.5H1170.09V11.5H1154.14V16.5ZM1186.03 16.5H1201.98V11.5H1186.03V16.5ZM1217.93 16.5H1233.87V11.5H1217.93V16.5ZM1249.82 16.5H1265.76V11.5H1249.82V16.5ZM1281.71 16.5H1297.66V11.5H1281.71V16.5ZM1313.6 16.5H1329.55V11.5H1313.6V16.5ZM1345.49 16.5H1361.44V11.5H1345.49V16.5ZM1377.39 16.5H1393.33V11.5H1377.39V16.5ZM1409.28 16.5H1425.22V11.5H1409.28V16.5ZM1441.17 16.5H1457.12V11.5H1441.17V16.5ZM1473.06 16.5H1489.01V11.5H1473.06V16.5ZM1504.96 16.5H1520.9V11.5H1504.96V16.5ZM1536.85 16.5H1552.79V11.5H1536.85V16.5ZM1568.74 16.5H1584.69V11.5H1568.74V16.5ZM1600.63 16.5H1616.58V11.5H1600.63V16.5ZM1632.52 16.5H1648.47V11.5H1632.52V16.5ZM1664.42 16.5H1680.36V11.5H1664.42V16.5ZM1696.31 16.5H1712.25V11.5H1696.31V16.5ZM1728.2 16.5H1744.15V11.5H1728.2V16.5ZM1760.09 16.5H1776.04V11.5H1760.09V16.5ZM1791.98 16.5H1807.93V11.5H1791.98V16.5ZM1823.88 16.5H1839.82V11.5H1823.88V16.5ZM1855.77 16.5H1871.71V11.5H1855.77V16.5ZM1887.66 16.5H1903.61V11.5H1887.66V16.5ZM1919.55 16.5H1935.5V11.5H1919.55V16.5ZM1951.44 16.5H1967.39V11.5H1951.44V16.5ZM1983.34 16.5H1999.28V11.5H1983.34V16.5ZM2015.23 16.5H2031.17V11.5H2015.23V16.5ZM2047.12 16.5H2063.07V11.5H2047.12V16.5ZM2079.01 16.5H2094.96V11.5H2079.01V16.5ZM2110.9 16.5H2126.85V11.5H2110.9V16.5ZM2142.8 16.5H2158.74V11.5H2142.8V16.5ZM2174.69 16.5H2190.64V11.5H2174.69V16.5ZM2206.58 16.5H2222.53V11.5H2206.58V16.5ZM2238.47 16.5H2254.42V11.5H2238.47V16.5ZM2270.37 16.5H2286.31V11.5H2270.37V16.5ZM2302.26 16.5H2318.2V11.5H2302.26V16.5ZM2334.15 16.5H2350.1V11.5H2334.15V16.5ZM2366.04 16.5H2381.99V11.5H2366.04V16.5ZM2397.93 16.5H2413.88V11.5H2397.93V16.5ZM2429.83 16.5H2445.77V11.5H2429.83V16.5ZM2461.72 16.5H2477.66V11.5H2461.72V16.5ZM2493.61 16.5H2509.56V11.5H2493.61V16.5ZM2525.5 16.5H2541.45V11.5H2525.5V16.5ZM2557.39 16.5H2573.34V11.5H2557.39V16.5ZM2589.29 16.5H2605.23V11.5H2589.29V16.5ZM2621.18 16.5H2637.12V11.5H2621.18V16.5ZM2653.07 16.5H2669.02V11.5H2653.07V16.5ZM2684.96 16.5H2700.91V11.5H2684.96V16.5ZM2716.85 16.5H2732.8V11.5H2716.85V16.5ZM2748.75 16.5H2764.69V11.5H2748.75V16.5ZM2780.64 16.5H2796.58V11.5H2780.64V16.5ZM2812.53 16.5H2828.48V11.5H2812.53V16.5ZM2844.42 16.5H2860.37V11.5H2844.42V16.5ZM2876.31 16.5H2892.26V11.5H2876.31V16.5ZM2908.21 16.5H2924.15V11.5H2908.21V16.5ZM2940.1 16.5H2956.05V11.5H2940.1V16.5ZM2971.99 16.5H2987.94V11.5H2971.99V16.5ZM3003.88 16.5H3019.83V11.5H3003.88V16.5ZM3035.78 16.5H3051.72V11.5H3035.78V16.5ZM3067.67 16.5H3083.61V11.5H3067.67V16.5ZM3099.56 16.5H3115.51V11.5H3099.56V16.5ZM3131.45 16.5H3147.4V11.5H3131.45V16.5ZM3163.34 16.5H3179.29V11.5H3163.34V16.5ZM3195.24 16.5H3211.18V11.5H3195.24V16.5ZM3227.13 16.5H3243.07V11.5H3227.13V16.5ZM3259.02 16.5H3274.97V11.5H3259.02V16.5ZM3290.91 16.5H3306.86V11.5H3290.91V16.5ZM3322.8 16.5H3338.75V11.5H3322.8V16.5ZM3354.7 16.5H3370.64V11.5H3354.7V16.5ZM3386.59 16.5H3402.53V11.5H3386.59V16.5ZM3418.48 16.5H3434.43V11.5H3418.48V16.5ZM3450.37 16.5H3466.32V11.5H3450.37V16.5ZM3482.26 16.5H3498.21V11.5H3482.26V16.5ZM3514.16 16.5H3530.1V11.5H3514.16V16.5ZM3546.05 16.5H3562V11.5H3546.05V16.5ZM3577.94 16.5H3593.89V11.5H3577.94V16.5ZM3609.83 16.5H3625.78V11.5H3609.83V16.5ZM3641.73 16.5H3657.67V11.5H3641.73V16.5ZM3673.62 16.5H3689.56V11.5H3673.62V16.5ZM3705.51 16.5H3721.46V11.5H3705.51V16.5ZM3737.4 16.5H3753.35V11.5H3737.4V16.5ZM3769.29 16.5H3785.24V11.5H3769.29V16.5ZM3801.19 16.5H3817.13V11.5H3801.19V16.5ZM3833.08 16.5H3849.02V11.5H3833.08V16.5ZM3864.97 16.5H3880.92V11.5H3864.97V16.5ZM3896.86 16.5H3912.81V11.5H3896.86V16.5ZM3928.75 16.5H3944.7V11.5H3928.75V16.5ZM3960.65 16.5H3976.59V11.5H3960.65V16.5ZM3992.54 16.5H4008.48V11.5H3992.54V16.5ZM4024.43 16.5H4040.38V11.5H4024.43V16.5ZM4056.32 16.5H4072.27V11.5H4056.32V16.5ZM4088.21 16.5H4104.16V11.5H4088.21V16.5ZM4120.11 16.5H4136.05V11.5H4120.11V16.5ZM4152 16.5H4167.94V11.5H4152V16.5ZM4183.89 16.5H4199.84V11.5H4183.89V16.5ZM4215.78 16.5H4231.73V11.5H4215.78V16.5ZM4247.67 16.5H4263.62V11.5H4247.67V16.5ZM4279.56 16.5H4295.51V11.5H4279.56V16.5ZM4311.46 16.5H4327.4V11.5H4311.46V16.5ZM4343.35 16.5H4359.29V11.5H4343.35V16.5ZM4375.24 16.5H4391.19V11.5H4375.24V16.5ZM4407.13 16.5H4423.08V11.5H4407.13V16.5ZM4439.02 16.5H4447V11.5H4439.02V16.5Z"
    fill="#312A29"
  />
</svg>